<svg xmlns="http://www.w3.org/2000/svg"  viewBox="0 0 64 64" width="256px" height="256px"><g data-name="13-blueprint"><path fill="#ffd747" d="M15,8V56A7,7,0,0,0,1,56V8A7,7,0,0,1,15,8Z"/><path fill="#ffbb05" d="M10.5,1.467A6.988,6.988,0,0,0,1,8V56a6.994,6.994,0,0,1,5-6.707V8A6.99,6.99,0,0,1,10.5,1.467Z"/><path fill="#9c9c9c" d="M15,56a7,7,0,1,1-7-7A6.995,6.995,0,0,1,15,56Zm-3,0a4,4,0,1,0-4,4A4,4,0,0,0,12,56Z"/><path fill="#f0f0f0" d="M59,8V63H8a7,7,0,0,0,7-7V8Z"/><path fill="#64e1dc" d="M40.659,46.46A5.51,5.51,0,0,1,41.3,48H43v4H41.3a5.51,5.51,0,0,1-.64,1.54l1.2,1.2-2.12,2.12-1.2-1.2A5.51,5.51,0,0,1,37,56.3V58H33V56.3a5.51,5.51,0,0,1-1.54-.64l-1.2,1.2-2.12-2.12,1.2-1.2A5.51,5.51,0,0,1,28.7,52H27V48h1.7a5.51,5.51,0,0,1,.64-1.54l-1.2-1.2,2.12-2.12,1.2,1.2A5.51,5.51,0,0,1,33,43.7V42h4v1.7a5.51,5.51,0,0,1,1.54.64l1.2-1.2,2.12,2.12ZM38,50a3,3,0,1,0-3,3A3,3,0,0,0,38,50Z"/><polygon fill="#d9d9d9" points="44.999 24 41.999 24 41.999 34 27.999 34 27.999 24 24.999 24 34.999 14 44.999 24"/><path fill="#e4e4e4" d="M20,8H15V56a7,7,0,0,1-7,7h8.9C18,63,20,59.961,20,58Z"/><ellipse cx="11.684" cy="6.695" fill="#f6fafd" rx="1.642" ry="2.285" transform="rotate(-45.018 11.684 6.695)"/><ellipse cx="59.68" cy="15.708" fill="#f6fafd" rx=".825" ry="1.148" transform="rotate(-45.018 59.68 15.709)"/><rect width="16" height="2" x="4" y="22" fill="#fdffdc" rx=".984" ry=".984" transform="rotate(-90 12 23)"/><rect width="4" height="2" x="10" y="11" fill="#fdffdc" rx=".984" ry=".984" transform="rotate(-90 12 12)"/><polygon fill="#cfcfcf" points="58.27 17.861 58.549 17.23 55.479 15.73 48.319 31.89 46.663 33.531 46.499 36.68 49.819 33.39 56.979 17.23 58.27 17.861"/><path fill="#cfcfcf" d="M55.889,31.67l-.71,1.62a1.722,1.722,0,0,1-1.247,1h0l-.309.5c.016.036.025.075.043.11L52.5,40.5l2.933-4.71h0a1.722,1.722,0,0,0,1.247-1l.71-1.62L59,29.537V24.652Z"/><circle cx="8" cy="56" r="4" fill="#595959"/><circle cx="8" cy="56" r="3" fill="#2c2c2c"/><path fill="#848484" d="M8,49a7,7,0,1,0,7,7A7,7,0,0,0,8,49ZM8,62a6,6,0,1,1,6-6A6,6,0,0,1,8,62Z"/><rect width="14" height="2" x="27.999" y="37" fill="#e4e4e4"/><rect width="2" height="2" x="24" y="37" fill="#e4e4e4"/><rect width="2" height="2" x="43.999" y="37" fill="#e4e4e4"/><path fill="#cfcfcf" d="M45.706,23.293l-10-10a1,1,0,0,0-1.414,0l-10,10A1,1,0,0,0,25,25h2v9a1,1,0,0,0,1,1H42a1,1,0,0,0,1-1V25h2a1,1,0,0,0,.707-1.707ZM37,33H33V29h4Zm5-10a1,1,0,0,0-1,1v9H38V29a1,1,0,0,0-1-1H33a1,1,0,0,0-1,1v4H29V24a1,1,0,0,0-1-1h-.586L35,15.414,42.585,23Z"/><path fill="#64e1dc" d="M62.019,5.17a1.814,1.814,0,0,1,.82,2.37L61.2,10.67l-2.86-1.41,1.43-3.23a1.641,1.641,0,0,1,2.25-.86Z"/><polygon fill="#ff9500" points="61.199 10.67 61.619 18.74 58.549 17.23 55.479 15.73 52.409 14.22 58.339 9.26 61.199 10.67"/><path fill="#9c9c9c" d="M52.929,34.15a1.741,1.741,0,0,1-.763-.753L51,39h0l2.933-4.71A1.583,1.583,0,0,1,52.929,34.15Z"/><polygon fill="#ffbb05" points="55.479 15.73 48.319 31.89 45.249 30.38 52.409 14.22 55.479 15.73"/><polygon fill="#383838" points="48.319 31.89 44.999 35.18 45.249 30.38 48.319 31.89"/><path fill="#9c9c9c" d="M52.819,30.17l3.07,1.5-.71,1.62a1.659,1.659,0,0,1-2.25.86,1.821,1.821,0,0,1-.82-2.37Z"/><polygon fill="#ffbb05" points="61.619 18.74 55.889 31.67 52.819 30.17 58.549 17.23 61.619 18.74"/><path fill="#96ebe6" d="M62.019,5.17a1.641,1.641,0,0,0-2.25.86l-1.43,3.23,1.467.724,2.239-4.8C62.036,5.182,62.028,5.175,62.019,5.17Z"/><polygon fill="#ffb13b" points="58.339 9.26 52.409 14.22 55.479 15.73 56.398 16.179 59.866 10.013 58.339 9.26"/><polygon fill="#ffd747" points="54.199 15.1 52.409 14.22 45.249 30.38 46.767 31.127 54.199 15.1"/><path fill="#adadad" d="M52.819,30.17l-.71,1.61a1.823,1.823,0,0,0,.63,2.25l1.474-3.179Z"/><polygon fill="#ffd747" points="60.162 18.023 58.549 17.23 52.819 30.17 54.213 30.851 60.162 18.023"/></g></svg>