<svg xmlns="http://www.w3.org/2000/svg"  viewBox="0 0 48 48" width="256px" height="256px"><radialGradient id="YA6e9lksLP0F01qqLW0V~a" cx="30.376" cy="31.745" r="18.7" gradientUnits="userSpaceOnUse"><stop offset=".508" stop-color="#66981f"/><stop offset=".613" stop-color="#63941e"/><stop offset=".727" stop-color="#5a861a"/><stop offset=".847" stop-color="#4a7014"/><stop offset=".97" stop-color="#35520b"/><stop offset="1" stop-color="#2f4909"/></radialGradient><path fill="url(#YA6e9lksLP0F01qqLW0V~a)" d="M19.273,19.37c-6.368,7.852-6.388,15.045-7.397,23.63h2.431	C14.307,43,13.401,31.461,19.273,19.37z"/><linearGradient id="YA6e9lksLP0F01qqLW0V~b" x1="16.284" x2="16.284" y1="42.423" y2="18.451" gradientUnits="userSpaceOnUse"><stop offset="0" stop-color="#5b8a1b"/><stop offset=".305" stop-color="#699e1f"/><stop offset=".73" stop-color="#79b524"/><stop offset="1" stop-color="#7fbd26"/></linearGradient><path fill="url(#YA6e9lksLP0F01qqLW0V~b)" d="M19.273,19.37C13.772,30.294,13.579,36.973,13.295,43h1.232	C14.527,43,16.547,26.585,19.273,19.37z"/><radialGradient id="YA6e9lksLP0F01qqLW0V~c" cx="39.79" cy="34.23" r="27.43" gradientUnits="userSpaceOnUse"><stop offset=".508" stop-color="#66981f"/><stop offset=".613" stop-color="#63941e"/><stop offset=".727" stop-color="#5a861a"/><stop offset=".847" stop-color="#4a7014"/><stop offset=".97" stop-color="#35520b"/><stop offset="1" stop-color="#2f4909"/></radialGradient><path fill="url(#YA6e9lksLP0F01qqLW0V~c)" d="M26,22c-8.966,2.103-11.991,12.414-13,21h3.847C16.847,43,17.678,27.736,26,22z"/><linearGradient id="YA6e9lksLP0F01qqLW0V~d" x1="595.862" x2="582.896" y1="42.116" y2="13.554" gradientTransform="matrix(-1 0 0 1 599 0)" gradientUnits="userSpaceOnUse"><stop offset="0" stop-color="#5b8a1b"/><stop offset=".305" stop-color="#699e1f"/><stop offset=".73" stop-color="#79b524"/><stop offset="1" stop-color="#7fbd26"/></linearGradient><path fill="url(#YA6e9lksLP0F01qqLW0V~d)" d="M6,11c4.395,6.66,5.866,30.067,8,32h-4C9.032,40.273,7.849,18.973,6,11z"/><linearGradient id="YA6e9lksLP0F01qqLW0V~e" x1="11.35" x2="33.797" y1="23.828" y2="23.828" gradientUnits="userSpaceOnUse"><stop offset=".091" stop-color="#5b8a1b"/><stop offset=".186" stop-color="#6b901c"/><stop offset=".372" stop-color="#96a120"/><stop offset=".631" stop-color="#dbbb26"/><stop offset=".652" stop-color="#e1bd26"/></linearGradient><path fill="url(#YA6e9lksLP0F01qqLW0V~e)" d="M11.433,42.879c-0.073-3.96,0.089-7.937,0.695-11.868c0.607-3.923,1.68-7.813,3.467-11.384	c1.751-3.581,4.256-6.804,7.342-9.312c3.079-2.523,6.68-4.322,10.421-5.538l0.185,0.542c-3.657,1.298-7.125,3.157-10.037,5.678	c-2.92,2.507-5.234,5.662-6.823,9.147c-1.579,3.496-2.464,7.277-2.9,11.093c-0.436,3.823-0.44,7.692-0.217,11.545L11.433,42.879z"/><linearGradient id="YA6e9lksLP0F01qqLW0V~f" x1="12.97" x2="43.088" y1="29.836" y2="29.836" gradientUnits="userSpaceOnUse"><stop offset=".093" stop-color="#517a18"/><stop offset=".182" stop-color="#61821a"/><stop offset=".357" stop-color="#8c961e"/><stop offset=".599" stop-color="#d1b624"/><stop offset=".652" stop-color="#e1bd26"/></linearGradient><path fill="url(#YA6e9lksLP0F01qqLW0V~f)" d="M12.97,43c0.056-2.049,0.232-4.093,0.557-6.116c0.341-2.021,0.842-4.015,1.509-5.954	c1.339-3.859,3.378-7.573,6.425-10.397c1.511-1.407,3.285-2.572,5.262-3.26c1.979-0.674,4.15-0.78,6.179-0.319	c2.029,0.488,3.87,1.519,5.449,2.805c1.585,1.291,2.925,2.833,4.104,4.471l-0.464,0.337c-1.198-1.574-2.544-3.038-4.094-4.234	c-1.545-1.193-3.307-2.11-5.188-2.51c-1.882-0.373-3.846-0.223-5.638,0.438c-1.789,0.678-3.401,1.791-4.776,3.143	c-2.742,2.742-4.545,6.331-5.671,10.044c-0.562,1.866-0.964,3.779-1.215,5.714c-0.234,1.937-0.326,3.889-0.304,5.839H12.97z"/><linearGradient id="YA6e9lksLP0F01qqLW0V~g" x1="589.291" x2="589.291" y1="42.218" y2="9.757" gradientTransform="matrix(-1 0 0 1 599 0)" gradientUnits="userSpaceOnUse"><stop offset="0" stop-color="#5b8a1b"/><stop offset=".28" stop-color="#61931d"/><stop offset=".74" stop-color="#73ac22"/><stop offset="1" stop-color="#7fbd26"/></linearGradient><path fill="url(#YA6e9lksLP0F01qqLW0V~g)" d="M6,11c3.162,8.375,5.833,30.459,7.418,32H10C5.866,34.409,7.93,18.49,6,11z"/><radialGradient id="YA6e9lksLP0F01qqLW0V~h" cx="34.171" cy="-6.972" r="2.271" gradientTransform="matrix(.8105 -.5858 .2642 .3656 7.337 27.019)" gradientUnits="userSpaceOnUse"><stop offset="0" stop-color="#f2e4a9"/><stop offset=".155" stop-color="#f1e2a4"/><stop offset=".326" stop-color="#eedb97"/><stop offset=".504" stop-color="#ead081"/><stop offset=".689" stop-color="#e4c062"/><stop offset=".875" stop-color="#dcac3b"/><stop offset="1" stop-color="#d69c1c"/></radialGradient><path fill="url(#YA6e9lksLP0F01qqLW0V~h)" d="M35.095,3.118c0,0-0.051,1.193-1.412,2.211c-0.979,0.732-2.056,0.934-2.379,0.488 c-0.323-0.447,0.211-1.401,1.209-2.106C33.804,2.798,35.095,3.118,35.095,3.118z"/><radialGradient id="YA6e9lksLP0F01qqLW0V~i" cx="34.171" cy="-5.865" r="1.822" gradientTransform="matrix(.8105 -.5858 .2642 .3656 7.337 27.019)" gradientUnits="userSpaceOnUse"><stop offset="0" stop-color="#dfb44b"/><stop offset=".329" stop-color="#dba936"/><stop offset=".725" stop-color="#d79f23"/><stop offset="1" stop-color="#d69c1c"/></radialGradient><path fill="url(#YA6e9lksLP0F01qqLW0V~i)" d="M35.095,3.118c0,0-0.051,1.193-1.412,2.211c-0.979,0.732-2.056,0.934-2.379,0.488 c0.389-0.291,1.016-0.431,2.015-1.137C34.61,3.767,35.095,3.118,35.095,3.118z"/><radialGradient id="YA6e9lksLP0F01qqLW0V~j" cx="32.841" cy="-1.973" r="2.271" gradientTransform="matrix(.9938 -.1108 .05 .4483 .242 10.586)" gradientUnits="userSpaceOnUse"><stop offset="0" stop-color="#f2e4a9"/><stop offset=".155" stop-color="#f1e2a4"/><stop offset=".326" stop-color="#eedb97"/><stop offset=".504" stop-color="#ead081"/><stop offset=".689" stop-color="#e4c062"/><stop offset=".875" stop-color="#dcac3b"/><stop offset="1" stop-color="#d69c1c"/></radialGradient><path fill="url(#YA6e9lksLP0F01qqLW0V~j)" d="M35.099,5.839c0,0-0.632,1.014-2.318,1.229c-1.213,0.155-2.25-0.199-2.311-0.747 c-0.061-0.548,0.873-1.115,2.09-1.238C34.133,4.924,35.099,5.839,35.099,5.839z"/><radialGradient id="YA6e9lksLP0F01qqLW0V~k" cx="32.841" cy="-.866" r="1.822" gradientTransform="matrix(.9938 -.1108 .05 .4483 .242 10.586)" gradientUnits="userSpaceOnUse"><stop offset="0" stop-color="#dfb44b"/><stop offset=".329" stop-color="#dba936"/><stop offset=".725" stop-color="#d79f23"/><stop offset="1" stop-color="#d69c1c"/></radialGradient><path fill="url(#YA6e9lksLP0F01qqLW0V~k)" d="M35.099,5.839c0,0-0.632,1.014-2.318,1.229c-1.213,0.155-2.25-0.199-2.311-0.747 c0.482-0.062,1.097,0.125,2.313,0.003C34.357,6.165,35.099,5.839,35.099,5.839z"/><radialGradient id="YA6e9lksLP0F01qqLW0V~l" cx="31.986" cy="-9.725" r="2.271" gradientTransform="matrix(.6802 -.733 .3306 .3068 12.16 31.336)" gradientUnits="userSpaceOnUse"><stop offset="0" stop-color="#f2e4a9"/><stop offset=".155" stop-color="#f1e2a4"/><stop offset=".326" stop-color="#eedb97"/><stop offset=".504" stop-color="#ead081"/><stop offset=".689" stop-color="#e4c062"/><stop offset=".875" stop-color="#dcac3b"/><stop offset="1" stop-color="#d69c1c"/></radialGradient><path fill="url(#YA6e9lksLP0F01qqLW0V~l)" d="M32.309,3.223c0,0,0.184,1.18-0.952,2.444c-0.817,0.909-1.834,1.319-2.238,0.944 c-0.404-0.375-0.067-1.415,0.774-2.302C30.98,3.161,32.309,3.223,32.309,3.223z"/><radialGradient id="YA6e9lksLP0F01qqLW0V~m" cx="31.986" cy="-8.618" r="1.822" gradientTransform="matrix(.6802 -.733 .3306 .3068 12.16 31.336)" gradientUnits="userSpaceOnUse"><stop offset="0" stop-color="#dfb44b"/><stop offset=".329" stop-color="#dba936"/><stop offset=".725" stop-color="#d79f23"/><stop offset="1" stop-color="#d69c1c"/></radialGradient><path fill="url(#YA6e9lksLP0F01qqLW0V~m)" d="M32.309,3.223c0,0,0.184,1.18-0.952,2.444c-0.817,0.909-1.834,1.319-2.238,0.944 c0.324-0.362,0.912-0.622,1.754-1.509C31.96,3.954,32.309,3.223,32.309,3.223z"/><radialGradient id="YA6e9lksLP0F01qqLW0V~n" cx="29.989" cy="-2.025" r="2.271" gradientTransform="matrix(.9991 .0415 -.0187 .4507 .41 7.164)" gradientUnits="userSpaceOnUse"><stop offset="0" stop-color="#f2e4a9"/><stop offset=".155" stop-color="#f1e2a4"/><stop offset=".326" stop-color="#eedb97"/><stop offset=".504" stop-color="#ead081"/><stop offset=".689" stop-color="#e4c062"/><stop offset=".875" stop-color="#dcac3b"/><stop offset="1" stop-color="#d69c1c"/></radialGradient><path fill="url(#YA6e9lksLP0F01qqLW0V~n)" d="M32.734,7.627c0,0-0.778,0.906-2.477,0.862c-1.222-0.031-2.193-0.539-2.17-1.09 s1.032-0.97,2.253-0.906C31.918,6.577,32.734,7.627,32.734,7.627z"/><radialGradient id="YA6e9lksLP0F01qqLW0V~o" cx="29.989" cy="-.918" r="1.822" gradientTransform="matrix(.9991 .0415 -.0187 .4507 .41 7.164)" gradientUnits="userSpaceOnUse"><stop offset="0" stop-color="#dfb44b"/><stop offset=".329" stop-color="#dba936"/><stop offset=".725" stop-color="#d79f23"/><stop offset="1" stop-color="#d69c1c"/></radialGradient><path fill="url(#YA6e9lksLP0F01qqLW0V~o)" d="M32.734,7.627c0,0-0.778,0.906-2.477,0.862c-1.222-0.031-2.193-0.539-2.17-1.09 c0.486,0.012,1.065,0.29,2.286,0.354C31.951,7.837,32.734,7.627,32.734,7.627z"/><radialGradient id="YA6e9lksLP0F01qqLW0V~p" cx="28.748" cy="-8.273" r="2.271" gradientTransform="matrix(.554 -.8325 .3755 .2499 15.396 31.885)" gradientUnits="userSpaceOnUse"><stop offset="0" stop-color="#f2e4a9"/><stop offset=".155" stop-color="#f1e2a4"/><stop offset=".326" stop-color="#eedb97"/><stop offset=".504" stop-color="#ead081"/><stop offset=".689" stop-color="#e4c062"/><stop offset=".875" stop-color="#dcac3b"/><stop offset="1" stop-color="#d69c1c"/></radialGradient><path fill="url(#YA6e9lksLP0F01qqLW0V~p)" d="M29.534,3.967c0,0,0.37,1.135-0.549,2.565c-0.661,1.029-1.599,1.595-2.058,1.29 c-0.459-0.306-0.293-1.386,0.395-2.396C28.212,4.119,29.534,3.967,29.534,3.967z"/><radialGradient id="YA6e9lksLP0F01qqLW0V~q" cx="28.748" cy="-7.165" r="1.822" gradientTransform="matrix(.554 -.8325 .3755 .2499 15.396 31.885)" gradientUnits="userSpaceOnUse"><stop offset="0" stop-color="#dfb44b"/><stop offset=".329" stop-color="#dba936"/><stop offset=".725" stop-color="#d79f23"/><stop offset="1" stop-color="#d69c1c"/></radialGradient><path fill="url(#YA6e9lksLP0F01qqLW0V~q)" d="M29.534,3.967c0,0,0.37,1.135-0.549,2.565c-0.661,1.029-1.599,1.595-2.058,1.29 c0.262-0.409,0.801-0.76,1.489-1.77C29.306,4.745,29.534,3.967,29.534,3.967z"/><radialGradient id="YA6e9lksLP0F01qqLW0V~r" cx="25.3" cy="-1.013" r="2.271" gradientTransform="matrix(.9948 .102 -.046 .4487 3.043 6.609)" gradientUnits="userSpaceOnUse"><stop offset="0" stop-color="#f2e4a9"/><stop offset=".155" stop-color="#f1e2a4"/><stop offset=".326" stop-color="#eedb97"/><stop offset=".504" stop-color="#ead081"/><stop offset=".689" stop-color="#e4c062"/><stop offset=".875" stop-color="#dcac3b"/><stop offset="1" stop-color="#d69c1c"/></radialGradient><path fill="url(#YA6e9lksLP0F01qqLW0V~r)" d="M30.569,9.004c0,0-0.832,0.857-2.525,0.711c-1.218-0.105-2.157-0.67-2.1-1.219 C26,7.948,27.033,7.591,28.248,7.728C29.819,7.907,30.569,9.004,30.569,9.004z"/><radialGradient id="YA6e9lksLP0F01qqLW0V~s" cx="25.3" cy=".094" r="1.822" gradientTransform="matrix(.9948 .102 -.046 .4487 3.043 6.609)" gradientUnits="userSpaceOnUse"><stop offset="0" stop-color="#dfb44b"/><stop offset=".329" stop-color="#dba936"/><stop offset=".725" stop-color="#d79f23"/><stop offset="1" stop-color="#d69c1c"/></radialGradient><path fill="url(#YA6e9lksLP0F01qqLW0V~s)" d="M30.569,9.004c0,0-0.832,0.857-2.525,0.711c-1.218-0.105-2.157-0.67-2.1-1.219 c0.484,0.041,1.046,0.354,2.26,0.492C29.775,9.166,30.569,9.004,30.569,9.004z"/><g><radialGradient id="YA6e9lksLP0F01qqLW0V~t" cx="25.717" cy="-7.555" r="2.271" gradientTransform="matrix(.3755 -.9268 .4181 .1694 19.414 32.144)" gradientUnits="userSpaceOnUse"><stop offset="0" stop-color="#f2e4a9"/><stop offset=".155" stop-color="#f1e2a4"/><stop offset=".326" stop-color="#eedb97"/><stop offset=".504" stop-color="#ead081"/><stop offset=".689" stop-color="#e4c062"/><stop offset=".875" stop-color="#dcac3b"/><stop offset="1" stop-color="#d69c1c"/></radialGradient><path fill="url(#YA6e9lksLP0F01qqLW0V~t)" d="M26.818,4.885c0,0,0.591,1.038-0.022,2.623c-0.441,1.14-1.246,1.884-1.757,1.677 c-0.511-0.207-0.565-1.299-0.094-2.427C25.555,5.3,26.818,4.885,26.818,4.885z"/><radialGradient id="YA6e9lksLP0F01qqLW0V~u" cx="25.717" cy="-6.448" r="1.822" gradientTransform="matrix(.3755 -.9268 .4181 .1694 19.414 32.144)" gradientUnits="userSpaceOnUse"><stop offset="0" stop-color="#dfb44b"/><stop offset=".329" stop-color="#dba936"/><stop offset=".725" stop-color="#d79f23"/><stop offset="1" stop-color="#d69c1c"/></radialGradient><path fill="url(#YA6e9lksLP0F01qqLW0V~u)" d="M26.818,4.885c0,0,0.591,1.038-0.022,2.623c-0.441,1.14-1.246,1.884-1.757,1.677 c0.175-0.453,0.632-0.905,1.103-2.033C26.752,5.693,26.818,4.885,26.818,4.885z"/></g><g><radialGradient id="YA6e9lksLP0F01qqLW0V~v" cx="23.52" cy="-9.74" r="2.271" gradientTransform="matrix(.2927 -.9562 .4313 .132 21.208 32.465)" gradientUnits="userSpaceOnUse"><stop offset="0" stop-color="#f2e4a9"/><stop offset=".155" stop-color="#f1e2a4"/><stop offset=".326" stop-color="#eedb97"/><stop offset=".504" stop-color="#ead081"/><stop offset=".689" stop-color="#e4c062"/><stop offset=".875" stop-color="#dcac3b"/><stop offset="1" stop-color="#d69c1c"/></radialGradient><path fill="url(#YA6e9lksLP0F01qqLW0V~v)" d="M24.605,6.475c0,0,0.68,0.982,0.208,2.615c-0.339,1.175-1.076,1.986-1.603,1.825 s-0.677-1.244-0.307-2.409C23.382,6.999,24.605,6.475,24.605,6.475z"/><radialGradient id="YA6e9lksLP0F01qqLW0V~w" cx="23.52" cy="-8.633" r="1.822" gradientTransform="matrix(.2927 -.9562 .4313 .132 21.208 32.465)" gradientUnits="userSpaceOnUse"><stop offset="0" stop-color="#dfb44b"/><stop offset=".329" stop-color="#dba936"/><stop offset=".725" stop-color="#d79f23"/><stop offset="1" stop-color="#d69c1c"/></radialGradient><path fill="url(#YA6e9lksLP0F01qqLW0V~w)" d="M24.605,6.475c0,0,0.68,0.982,0.208,2.615c-0.339,1.175-1.076,1.986-1.603,1.825 c0.134-0.467,0.55-0.957,0.921-2.122C24.61,7.286,24.605,6.475,24.605,6.475z"/></g><g><radialGradient id="YA6e9lksLP0F01qqLW0V~x" cx="20.454" cy="-4.235" r="2.271" gradientTransform="matrix(.9999 -.0158 .0071 .451 3.966 13.453)" gradientUnits="userSpaceOnUse"><stop offset="0" stop-color="#f2e4a9"/><stop offset=".155" stop-color="#f1e2a4"/><stop offset=".326" stop-color="#eedb97"/><stop offset=".504" stop-color="#ead081"/><stop offset=".689" stop-color="#e4c062"/><stop offset=".875" stop-color="#dcac3b"/><stop offset="1" stop-color="#d69c1c"/></radialGradient><path fill="url(#YA6e9lksLP0F01qqLW0V~x)" d="M26.715,11.218c0,0-0.725,0.949-2.424,1.003c-1.222,0.039-2.221-0.412-2.229-0.964 c-0.009-0.551,0.975-1.027,2.198-1.033C25.84,10.216,26.715,11.218,26.715,11.218z"/><radialGradient id="YA6e9lksLP0F01qqLW0V~y" cx="20.454" cy="-3.128" r="1.822" gradientTransform="matrix(.9999 -.0158 .0071 .451 3.966 13.453)" gradientUnits="userSpaceOnUse"><stop offset="0" stop-color="#dfb44b"/><stop offset=".329" stop-color="#dba936"/><stop offset=".725" stop-color="#d79f23"/><stop offset="1" stop-color="#d69c1c"/></radialGradient><path fill="url(#YA6e9lksLP0F01qqLW0V~y)" d="M26.715,11.218c0,0-0.725,0.949-2.424,1.003c-1.222,0.039-2.221-0.412-2.229-0.964 c0.486-0.016,1.08,0.229,2.303,0.223C25.945,11.472,26.715,11.218,26.715,11.218z"/></g><g><radialGradient id="YA6e9lksLP0F01qqLW0V~z" cx="20.736" cy="-6.946" r="2.271" gradientTransform="matrix(.3407 -.9402 .4241 .1537 17.748 31.135)" gradientUnits="userSpaceOnUse"><stop offset="0" stop-color="#f2e4a9"/><stop offset=".155" stop-color="#f1e2a4"/><stop offset=".326" stop-color="#eedb97"/><stop offset=".504" stop-color="#ead081"/><stop offset=".689" stop-color="#e4c062"/><stop offset=".875" stop-color="#dcac3b"/><stop offset="1" stop-color="#d69c1c"/></radialGradient><path fill="url(#YA6e9lksLP0F01qqLW0V~z)" d="M22.69,8.397c0,0,0.629,1.015,0.076,2.622c-0.398,1.156-1.174,1.929-1.693,1.741 s-0.614-1.277-0.185-2.422C21.443,8.858,22.69,8.397,22.69,8.397z"/><radialGradient id="YA6e9lksLP0F01qqLW0V~A" cx="20.736" cy="-5.839" r="1.822" gradientTransform="matrix(.3407 -.9402 .4241 .1537 17.748 31.135)" gradientUnits="userSpaceOnUse"><stop offset="0" stop-color="#dfb44b"/><stop offset=".329" stop-color="#dba936"/><stop offset=".725" stop-color="#d79f23"/><stop offset="1" stop-color="#d69c1c"/></radialGradient><path fill="url(#YA6e9lksLP0F01qqLW0V~A)" d="M22.69,8.397c0,0,0.629,1.015,0.076,2.622c-0.398,1.156-1.174,1.929-1.693,1.741 c0.158-0.46,0.598-0.928,1.027-2.073C22.654,9.206,22.69,8.397,22.69,8.397z"/></g><g><radialGradient id="YA6e9lksLP0F01qqLW0V~B" cx="22.968" cy="-1.108" r="2.271" gradientTransform="matrix(.9973 .0738 -.0333 .4498 3.514 8.634)" gradientUnits="userSpaceOnUse"><stop offset="0" stop-color="#f2e4a9"/><stop offset=".155" stop-color="#f1e2a4"/><stop offset=".326" stop-color="#eedb97"/><stop offset=".504" stop-color="#ead081"/><stop offset=".689" stop-color="#e4c062"/><stop offset=".875" stop-color="#dcac3b"/><stop offset="1" stop-color="#d69c1c"/></radialGradient><path fill="url(#YA6e9lksLP0F01qqLW0V~B)" d="M28.774,10.036c0,0-0.807,0.88-2.504,0.782c-1.221-0.071-2.175-0.609-2.134-1.159 s1.063-0.936,2.281-0.832C27.992,8.96,28.774,10.036,28.774,10.036z"/><radialGradient id="YA6e9lksLP0F01qqLW0V~C" cx="22.968" cy="-.001" r="1.822" gradientTransform="matrix(.9973 .0738 -.0333 .4498 3.514 8.634)" gradientUnits="userSpaceOnUse"><stop offset="0" stop-color="#dfb44b"/><stop offset=".329" stop-color="#dba936"/><stop offset=".725" stop-color="#d79f23"/><stop offset="1" stop-color="#d69c1c"/></radialGradient><path fill="url(#YA6e9lksLP0F01qqLW0V~C)" d="M28.774,10.036c0,0-0.807,0.88-2.504,0.782c-1.221-0.071-2.175-0.609-2.134-1.159 c0.485,0.028,1.055,0.325,2.273,0.428C27.984,10.22,28.774,10.036,28.774,10.036z"/></g><g><radialGradient id="YA6e9lksLP0F01qqLW0V~D" cx="32.23" cy="33.673" r="2.271" gradientTransform="matrix(.7016 .7126 -.3214 .3165 31.883 -8.032)" gradientUnits="userSpaceOnUse"><stop offset="0" stop-color="#f2e4a9"/><stop offset=".155" stop-color="#f1e2a4"/><stop offset=".326" stop-color="#eedb97"/><stop offset=".504" stop-color="#ead081"/><stop offset=".689" stop-color="#e4c062"/><stop offset=".875" stop-color="#dcac3b"/><stop offset="1" stop-color="#d69c1c"/></radialGradient><path fill="url(#YA6e9lksLP0F01qqLW0V~D)" d="M45.279,27.273c0,0-1.187,0.13-2.399-1.062c-0.872-0.857-1.235-1.891-0.842-2.278 c0.393-0.387,1.416-0.003,2.265,0.877C45.4,25.948,45.279,27.273,45.279,27.273z"/><radialGradient id="YA6e9lksLP0F01qqLW0V~E" cx="32.23" cy="34.78" r="1.822" gradientTransform="matrix(.7016 .7126 -.3214 .3165 31.883 -8.032)" gradientUnits="userSpaceOnUse"><stop offset="0" stop-color="#dfb44b"/><stop offset=".329" stop-color="#dba936"/><stop offset=".725" stop-color="#d79f23"/><stop offset="1" stop-color="#d69c1c"/></radialGradient><path fill="url(#YA6e9lksLP0F01qqLW0V~E)" d="M45.279,27.273c0,0-1.187,0.13-2.399-1.062c-0.872-0.857-1.235-1.891-0.842-2.278 c0.347,0.34,0.58,0.939,1.428,1.82C44.564,26.891,45.279,27.273,45.279,27.273z"/></g><g><radialGradient id="YA6e9lksLP0F01qqLW0V~F" cx="40.203" cy="35.539" r="2.271" gradientTransform="matrix(.2857 .9583 -.4323 .1289 45.906 -17.651)" gradientUnits="userSpaceOnUse"><stop offset="0" stop-color="#f2e4a9"/><stop offset=".155" stop-color="#f1e2a4"/><stop offset=".326" stop-color="#eedb97"/><stop offset=".504" stop-color="#ead081"/><stop offset=".689" stop-color="#e4c062"/><stop offset=".875" stop-color="#dcac3b"/><stop offset="1" stop-color="#d69c1c"/></radialGradient><path fill="url(#YA6e9lksLP0F01qqLW0V~F)" d="M42.661,27.695c0,0-1.11-0.441-1.621-2.062c-0.368-1.166-0.204-2.249,0.325-2.407 c0.529-0.158,1.253,0.661,1.589,1.836C43.389,26.582,42.661,27.695,42.661,27.695z"/><radialGradient id="YA6e9lksLP0F01qqLW0V~G" cx="40.203" cy="36.646" r="1.822" gradientTransform="matrix(.2857 .9583 -.4323 .1289 45.906 -17.651)" gradientUnits="userSpaceOnUse"><stop offset="0" stop-color="#dfb44b"/><stop offset=".329" stop-color="#dba936"/><stop offset=".725" stop-color="#d79f23"/><stop offset="1" stop-color="#d69c1c"/></radialGradient><path fill="url(#YA6e9lksLP0F01qqLW0V~G)" d="M42.661,27.695c0,0-1.11-0.441-1.621-2.062c-0.368-1.166-0.204-2.249,0.325-2.407 c0.147,0.463,0.072,1.102,0.408,2.277C42.208,27.023,42.661,27.695,42.661,27.695z"/></g><g><radialGradient id="YA6e9lksLP0F01qqLW0V~H" cx="26.51" cy="29.34" r="2.271" gradientTransform="matrix(.8422 .5391 -.2432 .3799 27.604 -2.236)" gradientUnits="userSpaceOnUse"><stop offset="0" stop-color="#f2e4a9"/><stop offset=".155" stop-color="#f1e2a4"/><stop offset=".326" stop-color="#eedb97"/><stop offset=".504" stop-color="#ead081"/><stop offset=".689" stop-color="#e4c062"/><stop offset=".875" stop-color="#dcac3b"/><stop offset="1" stop-color="#d69c1c"/></radialGradient><path fill="url(#YA6e9lksLP0F01qqLW0V~H)" d="M44.739,24.485c0,0-1.129,0.39-2.575-0.503c-1.04-0.643-1.624-1.57-1.326-2.034 c0.297-0.464,1.38-0.318,2.403,0.352C44.564,23.167,44.739,24.485,44.739,24.485z"/><radialGradient id="YA6e9lksLP0F01qqLW0V~I" cx="26.51" cy="30.447" r="1.822" gradientTransform="matrix(.8422 .5391 -.2432 .3799 27.604 -2.236)" gradientUnits="userSpaceOnUse"><stop offset="0" stop-color="#dfb44b"/><stop offset=".329" stop-color="#dba936"/><stop offset=".725" stop-color="#d79f23"/><stop offset="1" stop-color="#d69c1c"/></radialGradient><path fill="url(#YA6e9lksLP0F01qqLW0V~I)" d="M44.739,24.485c0,0-1.129,0.39-2.575-0.503c-1.04-0.643-1.624-1.57-1.326-2.034 c0.414,0.255,0.774,0.787,1.797,1.458C43.957,24.272,44.739,24.485,44.739,24.485z"/></g><g><radialGradient id="YA6e9lksLP0F01qqLW0V~J" cx="39.907" cy="32.597" r="2.271" gradientTransform="matrix(.2092 .9779 -.4411 .0943 46.2 -18.577)" gradientUnits="userSpaceOnUse"><stop offset="0" stop-color="#f2e4a9"/><stop offset=".155" stop-color="#f1e2a4"/><stop offset=".326" stop-color="#eedb97"/><stop offset=".504" stop-color="#ead081"/><stop offset=".689" stop-color="#e4c062"/><stop offset=".875" stop-color="#dcac3b"/><stop offset="1" stop-color="#d69c1c"/></radialGradient><path fill="url(#YA6e9lksLP0F01qqLW0V~J)" d="M40.622,25.804c0,0-1.071-0.528-1.453-2.184c-0.275-1.191-0.026-2.258,0.513-2.374 c0.539-0.115,1.197,0.758,1.44,1.956C41.435,24.752,40.622,25.804,40.622,25.804z"/><radialGradient id="YA6e9lksLP0F01qqLW0V~K" cx="39.907" cy="33.705" r="1.822" gradientTransform="matrix(.2092 .9779 -.4411 .0943 46.2 -18.577)" gradientUnits="userSpaceOnUse"><stop offset="0" stop-color="#dfb44b"/><stop offset=".329" stop-color="#dba936"/><stop offset=".725" stop-color="#d79f23"/><stop offset="1" stop-color="#d69c1c"/></radialGradient><path fill="url(#YA6e9lksLP0F01qqLW0V~K)" d="M40.622,25.804c0,0-1.071-0.528-1.453-2.184c-0.275-1.191-0.026-2.258,0.513-2.374 c0.11,0.473-0.015,1.104,0.227,2.302C40.223,25.098,40.622,25.804,40.622,25.804z"/></g><g><radialGradient id="YA6e9lksLP0F01qqLW0V~L" cx="20.545" cy="28.489" r="2.271" gradientTransform="matrix(.9444 .3287 -.1483 .426 26.001 2.106)" gradientUnits="userSpaceOnUse"><stop offset="0" stop-color="#f2e4a9"/><stop offset=".155" stop-color="#f1e2a4"/><stop offset=".326" stop-color="#eedb97"/><stop offset=".504" stop-color="#ead081"/><stop offset=".689" stop-color="#e4c062"/><stop offset=".875" stop-color="#dcac3b"/><stop offset="1" stop-color="#d69c1c"/></radialGradient><path fill="url(#YA6e9lksLP0F01qqLW0V~L)" d="M43.368,21.791c0,0-1.007,0.642-2.621,0.109c-1.161-0.383-1.944-1.15-1.763-1.671 c0.181-0.521,1.269-0.63,2.419-0.215C42.89,20.55,43.368,21.791,43.368,21.791z"/><radialGradient id="YA6e9lksLP0F01qqLW0V~M" cx="20.545" cy="29.596" r="1.822" gradientTransform="matrix(.9444 .3287 -.1483 .426 26.001 2.106)" gradientUnits="userSpaceOnUse"><stop offset="0" stop-color="#dfb44b"/><stop offset=".329" stop-color="#dba936"/><stop offset=".725" stop-color="#d79f23"/><stop offset="1" stop-color="#d69c1c"/></radialGradient><path fill="url(#YA6e9lksLP0F01qqLW0V~M)" d="M43.368,21.791c0,0-1.007,0.642-2.621,0.109c-1.161-0.383-1.944-1.15-1.763-1.671 c0.462,0.152,0.936,0.586,2.086,1C42.557,21.766,43.368,21.791,43.368,21.791z"/></g><g><radialGradient id="YA6e9lksLP0F01qqLW0V~N" cx="36.205" cy="32.241" r="2.271" gradientTransform="matrix(.2129 .9771 -.4407 .096 44.914 -16.598)" gradientUnits="userSpaceOnUse"><stop offset="0" stop-color="#f2e4a9"/><stop offset=".155" stop-color="#f1e2a4"/><stop offset=".326" stop-color="#eedb97"/><stop offset=".504" stop-color="#ead081"/><stop offset=".689" stop-color="#e4c062"/><stop offset=".875" stop-color="#dcac3b"/><stop offset="1" stop-color="#d69c1c"/></radialGradient><path fill="url(#YA6e9lksLP0F01qqLW0V~N)" d="M38.875,24.154c0,0-1.073-0.524-1.462-2.178c-0.279-1.19-0.034-2.258,0.504-2.376 c0.539-0.117,1.2,0.753,1.447,1.95C39.684,23.098,38.875,24.154,38.875,24.154z"/><radialGradient id="YA6e9lksLP0F01qqLW0V~O" cx="36.205" cy="33.348" r="1.822" gradientTransform="matrix(.2129 .9771 -.4407 .096 44.914 -16.598)" gradientUnits="userSpaceOnUse"><stop offset="0" stop-color="#dfb44b"/><stop offset=".329" stop-color="#dba936"/><stop offset=".725" stop-color="#d79f23"/><stop offset="1" stop-color="#d69c1c"/></radialGradient><path fill="url(#YA6e9lksLP0F01qqLW0V~O)" d="M38.875,24.154c0,0-1.073-0.524-1.462-2.178c-0.279-1.19-0.034-2.258,0.504-2.376 c0.112,0.473-0.011,1.104,0.236,2.301C38.473,23.449,38.875,24.154,38.875,24.154z"/></g><g><radialGradient id="YA6e9lksLP0F01qqLW0V~P" cx="14.357" cy="24.941" r="2.271" gradientTransform="matrix(.9977 .0683 -.0308 .45 25.747 6.91)" gradientUnits="userSpaceOnUse"><stop offset="0" stop-color="#f2e4a9"/><stop offset=".155" stop-color="#f1e2a4"/><stop offset=".326" stop-color="#eedb97"/><stop offset=".504" stop-color="#ead081"/><stop offset=".689" stop-color="#e4c062"/><stop offset=".875" stop-color="#dcac3b"/><stop offset="1" stop-color="#d69c1c"/></radialGradient><path fill="url(#YA6e9lksLP0F01qqLW0V~P)" d="M41.621,19.307c0,0-0.802,0.885-2.5,0.796c-1.221-0.064-2.178-0.597-2.14-1.147 c0.038-0.55,1.058-0.942,2.277-0.845C40.833,18.235,41.621,19.307,41.621,19.307z"/><radialGradient id="YA6e9lksLP0F01qqLW0V~Q" cx="14.357" cy="26.048" r="1.822" gradientTransform="matrix(.9977 .0683 -.0308 .45 25.747 6.91)" gradientUnits="userSpaceOnUse"><stop offset="0" stop-color="#dfb44b"/><stop offset=".329" stop-color="#dba936"/><stop offset=".725" stop-color="#d79f23"/><stop offset="1" stop-color="#d69c1c"/></radialGradient><path fill="url(#YA6e9lksLP0F01qqLW0V~Q)" d="M41.621,19.307c0,0-0.802,0.885-2.5,0.796c-1.221-0.064-2.178-0.597-2.14-1.147 c0.485,0.025,1.057,0.319,2.276,0.415C40.832,19.495,41.621,19.307,41.621,19.307z"/></g><g><radialGradient id="YA6e9lksLP0F01qqLW0V~R" cx="10.91" cy="20.63" r="2.271" gradientTransform="matrix(.9929 -.1192 .0538 .4478 24.917 9.938)" gradientUnits="userSpaceOnUse"><stop offset="0" stop-color="#f2e4a9"/><stop offset=".155" stop-color="#f1e2a4"/><stop offset=".326" stop-color="#eedb97"/><stop offset=".504" stop-color="#ead081"/><stop offset=".689" stop-color="#e4c062"/><stop offset=".875" stop-color="#dcac3b"/><stop offset="1" stop-color="#d69c1c"/></radialGradient><path fill="url(#YA6e9lksLP0F01qqLW0V~R)" d="M39.173,17.632c0,0-0.623,1.019-2.307,1.248c-1.211,0.165-2.251-0.18-2.317-0.728 c-0.066-0.548,0.864-1.123,2.079-1.255C38.199,16.726,39.173,17.632,39.173,17.632z"/><radialGradient id="YA6e9lksLP0F01qqLW0V~S" cx="10.91" cy="21.736" r="1.822" gradientTransform="matrix(.9929 -.1192 .0538 .4478 24.917 9.938)" gradientUnits="userSpaceOnUse"><stop offset="0" stop-color="#dfb44b"/><stop offset=".329" stop-color="#dba936"/><stop offset=".725" stop-color="#d79f23"/><stop offset="1" stop-color="#d69c1c"/></radialGradient><path fill="url(#YA6e9lksLP0F01qqLW0V~S)" d="M39.173,17.632c0,0-0.623,1.019-2.307,1.248c-1.211,0.165-2.251-0.18-2.317-0.728 c0.481-0.066,1.098,0.116,2.313-0.017C38.433,17.965,39.173,17.632,39.173,17.632z"/></g><g><radialGradient id="YA6e9lksLP0F01qqLW0V~T" cx="29.686" cy="31.803" r="2.271" gradientTransform="matrix(.5017 .8651 -.3902 .2263 32.342 -13.39)" gradientUnits="userSpaceOnUse"><stop offset="0" stop-color="#f2e4a9"/><stop offset=".155" stop-color="#f1e2a4"/><stop offset=".326" stop-color="#eedb97"/><stop offset=".504" stop-color="#ead081"/><stop offset=".689" stop-color="#e4c062"/><stop offset=".875" stop-color="#dcac3b"/><stop offset="1" stop-color="#d69c1c"/></radialGradient><path fill="url(#YA6e9lksLP0F01qqLW0V~T)" d="M35.963,21.516c0,0-1.182-0.17-2.058-1.626c-0.63-1.048-0.724-2.139-0.247-2.416 c0.477-0.277,1.372,0.35,1.974,1.414C36.411,20.264,35.963,21.516,35.963,21.516z"/><radialGradient id="YA6e9lksLP0F01qqLW0V~U" cx="29.686" cy="32.91" r="1.822" gradientTransform="matrix(.5017 .8651 -.3902 .2263 32.342 -13.39)" gradientUnits="userSpaceOnUse"><stop offset="0" stop-color="#dfb44b"/><stop offset=".329" stop-color="#dba936"/><stop offset=".725" stop-color="#d79f23"/><stop offset="1" stop-color="#d69c1c"/></radialGradient><path fill="url(#YA6e9lksLP0F01qqLW0V~U)" d="M35.963,21.516c0,0-1.182-0.17-2.058-1.626c-0.63-1.048-0.724-2.139-0.247-2.416 c0.251,0.416,0.327,1.054,0.929,2.119C35.365,20.968,35.963,21.516,35.963,21.516z"/></g><g><radialGradient id="YA6e9lksLP0F01qqLW0V~V" cx="8.823" cy="24.993" r="2.271" gradientTransform="matrix(.9869 -.1614 .0728 .4451 23.633 7.268)" gradientUnits="userSpaceOnUse"><stop offset="0" stop-color="#f2e4a9"/><stop offset=".155" stop-color="#f1e2a4"/><stop offset=".326" stop-color="#eedb97"/><stop offset=".504" stop-color="#ead081"/><stop offset=".689" stop-color="#e4c062"/><stop offset=".875" stop-color="#dcac3b"/><stop offset="1" stop-color="#d69c1c"/></radialGradient><path fill="url(#YA6e9lksLP0F01qqLW0V~V)" d="M36.462,16.627c0,0-0.579,1.045-2.252,1.346c-1.203,0.217-2.257-0.084-2.346-0.628 c-0.089-0.544,0.815-1.158,2.024-1.343C35.45,15.763,36.462,16.627,36.462,16.627z"/><radialGradient id="YA6e9lksLP0F01qqLW0V~W" cx="8.823" cy="26.1" r="1.822" gradientTransform="matrix(.9869 -.1614 .0728 .4451 23.633 7.268)" gradientUnits="userSpaceOnUse"><stop offset="0" stop-color="#dfb44b"/><stop offset=".329" stop-color="#dba936"/><stop offset=".725" stop-color="#d79f23"/><stop offset="1" stop-color="#d69c1c"/></radialGradient><path fill="url(#YA6e9lksLP0F01qqLW0V~W)" d="M36.462,16.627c0,0-0.579,1.045-2.252,1.346c-1.203,0.217-2.257-0.084-2.346-0.628 c0.478-0.087,1.102,0.069,2.311-0.115C35.737,16.99,36.462,16.627,36.462,16.627z"/></g><g><radialGradient id="YA6e9lksLP0F01qqLW0V~X" cx="33.535" cy="32.878" r="2.271" gradientTransform="matrix(.336 .9418 -.4248 .1516 39.552 -15.886)" gradientUnits="userSpaceOnUse"><stop offset="0" stop-color="#f2e4a9"/><stop offset=".155" stop-color="#f1e2a4"/><stop offset=".326" stop-color="#eedb97"/><stop offset=".504" stop-color="#ead081"/><stop offset=".689" stop-color="#e4c062"/><stop offset=".875" stop-color="#dcac3b"/><stop offset="1" stop-color="#d69c1c"/></radialGradient><path fill="url(#YA6e9lksLP0F01qqLW0V~X)" d="M37.603,22.885c0,0-1.132-0.382-1.728-1.973c-0.429-1.145-0.323-2.235,0.197-2.421 c0.519-0.185,1.286,0.594,1.684,1.75C38.271,21.735,37.603,22.885,37.603,22.885z"/><radialGradient id="YA6e9lksLP0F01qqLW0V~Y" cx="33.535" cy="33.985" r="1.822" gradientTransform="matrix(.336 .9418 -.4248 .1516 39.552 -15.886)" gradientUnits="userSpaceOnUse"><stop offset="0" stop-color="#dfb44b"/><stop offset=".329" stop-color="#dba936"/><stop offset=".725" stop-color="#d79f23"/><stop offset="1" stop-color="#d69c1c"/></radialGradient><path fill="url(#YA6e9lksLP0F01qqLW0V~Y)" d="M37.603,22.885c0,0-1.132-0.382-1.728-1.973c-0.429-1.145-0.323-2.235,0.197-2.421 c0.171,0.455,0.13,1.096,0.528,2.252C37.115,22.238,37.603,22.885,37.603,22.885z"/></g><linearGradient id="YA6e9lksLP0F01qqLW0V~Z" x1="20.663" x2="20.663" y1="42.487" y2="21.184" gradientUnits="userSpaceOnUse"><stop offset="0" stop-color="#5b8a1b"/><stop offset=".305" stop-color="#699e1f"/><stop offset=".73" stop-color="#79b524"/><stop offset="1" stop-color="#7fbd26"/></linearGradient><path fill="url(#YA6e9lksLP0F01qqLW0V~Z)" d="M26,22c-10.207,5.644-9.381,19.719-10.674,21h3.201C18.527,43,19.196,27.368,26,22z"/></svg>